Coordinates
nRows=8
nColumns=24

# SIMM Motion File Header:
name Coordinates
datacolumns 24
datarows 8
otherdata 1
range 0.51632999999999996000 0.52332999999999996000

Units are S.I. units (second, meters, Newtons, ...)
Angles are in degrees.

endheader
time	pelvis_tx	pelvis_ty	pelvis_tz	pelvis_tilt	pelvis_list	pelvis_rotation	hip_flexion_r	hip_adduction_r	hip_rotation_r	knee_angle_r	ankle_angle_r	subtalar_angle_r	mtp_angle_r	hip_flexion_l	hip_adduction_l	hip_rotation_l	knee_angle_l	ankle_angle_l	subtalar_angle_l	mtp_angle_l	lumbar_extension	lumbar_bending	lumbar_rotation
      0.51632999999999996000	      1.64927755478914560000	      0.83087785481278509000	     -0.28869574466328241000	     -5.97823607962254930000	      0.45784484680107873000	     -0.54669913480430543000	     33.00398632625695700000	      0.36354341202589469000	      8.03982362565140110000	    -28.43197511466860300000	      1.73437418964913400000	      0.00000000000000047086	      0.00000000000000315826	     -2.89634900529778690000	      5.44440849942809100000	     -1.91211843483937560000	     -1.89685501148057400000	      4.91881799638290130000	     -0.00000000000002100447	     -0.00000000000003376387	      6.77565346108292840000	     -0.67418520460481779000	      5.07914355974675490000
      0.51732999999999996000	      1.65004740204723910000	      0.83077495960606318000	     -0.28873651037651188000	     -5.98129993956262500000	      0.45941442496083396000	     -0.51112307921220745000	     33.00479034363919300000	      0.36101537851754717000	      8.02485568325376520000	    -28.11736439975720000000	      1.57030190465640130000	      0.00000000000000046252	      0.00000000000000319396	     -2.94695871026272550000	      5.44730787390631210000	     -1.91803888455794370000	     -1.90627843899155210000	      4.95018921555198420000	     -0.00000000000002084201	     -0.00000000000003442377	      6.78919976255704770000	     -0.69027744497977084000	      5.07892973636363100000
      0.51832999999999996000	      1.65081840489739260000	      0.83067160263283180000	     -0.28877716179521179000	     -5.98424445167566970000	      0.46094563043503822000	     -0.47551628239171395000	     33.00506105015093500000	      0.35825438040207613000	      8.00890826170605410000	    -27.80395893164723700000	      1.40469449221624720000	      0.00000000000000045378	      0.00000000000000323182	     -2.99744562399412430000	      5.45004780696887450000	     -1.92445192647184980000	     -1.91632993721752550000	      4.98186767655635520000	     -0.00000000000002066476	     -0.00000000000003514212	      6.80276516637074910000	     -0.70633011773903787000	      5.07880860278448590000
      0.51932999999999996000	      1.65159056393478030000	      0.83056779269054470000	     -0.28881770479918778000	     -5.98707056017739530000	      0.46242846362819284000	     -0.43987863346344563000	     33.00481307038668900000	      0.35527319765373278000	      7.99197514184394200000	    -27.49180707496811500000	      1.23763620522368600000	      0.00000000000000044437	      0.00000000000000326934	     -3.04780584707517920000	      5.45261402333396990000	     -1.93135624619948150000	     -1.92701470365287180000	      5.01385006414006270000	     -0.00000000000002048855	     -0.00000000000003586578	      6.81634983803250010000	     -0.72232793439445597000	      5.07876810858845660000
      0.52032999999999996000	      1.65236387955265320000	      0.83046353858831734000	     -0.28885814506581886000	     -5.98977933251101740000	      0.46385315806235161000	     -0.40420985099687684000	     33.00406103826456700000	      0.35208443155822144000	      7.97405110164245290000	    -27.18095690230462900000	      1.06921331218499720000	      0.00000000000000043377	      0.00000000000000330769	     -3.09803542150179160000	      5.45499243429202800000	     -1.93874993061982130000	     -1.93833767206776610000	      5.04613266411625630000	     -0.00000000000002030705	     -0.00000000000003660203	      6.82995404781045150000	     -0.73825600954697268000	      5.07879613393327210000
      0.52132999999999996000	      1.65313835194494610000	      0.83035884914445146000	     -0.28889848806018481000	     -5.99237195434069210000	      0.46521019076842673000	     -0.36850949049798354000	     33.00281958368321300000	      0.34870049294876498000	      7.95513193630829640000	    -26.87145618437421000000	      0.89951401533171738000	      0.00000000000000042463	      0.00000000000000334488	     -3.14813033719001820000	      5.45716915611426770000	     -1.94663047631239540000	     -1.95030350742484980000	      5.07871136322626880000	     -0.00000000000002014479	     -0.00000000000003727823	      6.84357816332439660000	     -0.75409987388087896000	      5.07888050385467870000
      0.52232999999999996000	      1.65391398110898800000	      0.83025373318391482000	     -0.28893873902513562000	     -5.99484972454576240000	      0.46649029268655245000	     -0.33277695189618456000	     33.00110331917428400000	      0.34513359045144454000	      7.93521447836430220000	    -26.56335238020881900000	      0.72862836873057601000	      0.00000000000000041523	      0.00000000000000338176	     -3.19808653848819850000	      5.45913052845503890000	     -1.95499479792685720000	     -1.96291660081154860000	      5.11158164934006450000	     -0.00000000000001998642	     -0.00000000000003793217	      6.85722264212422150000	     -0.76984548714986811000	      5.07900900256804460000
      0.52332999999999996000	      1.65469076684831660000	      0.83014819953578045000	     -0.28897890297130613000	     -5.99721405021632580000	      0.46768445907040185000	     -0.29701148702879043000	     32.99892682655091400000	      0.34139571874582259000	      7.91429661772589200000	    -26.25669262734022900000	      0.55664819639404439000	      0.00000000000000040656	      0.00000000000000341767	     -3.24789993069298030000	      5.46086313273527950000	     -1.96383923655235090000	     -1.97618106437768800000	      5.14473861165920800000	     -0.00000000000001987089	     -0.00000000000003847920	      6.87088802425626980000	     -0.78547925114958028000	      5.07916938777353270000
